<?xml version="1.0" encoding="UTF-8"?>
<!DOCTYPE svg PUBLIC "-//W3C//DTD SVG 1.1//EN" "http://www.w3.org/Graphics/SVG/1.1/DTD/svg11.dtd">
<svg version="1.1" xmlns="http://www.w3.org/2000/svg" xmlns:xlink="http://www.w3.org/1999/xlink" x="0" y="0"  viewBox="0, 0, 269, 88">
  <g id="Layer_1">
    <path d="M47.36,69.64 C33.199,69.64 21.72,58.161 21.72,44 C21.72,29.839 33.199,18.36 47.36,18.36 C61.521,18.36 73,29.839 73,44 C73,58.161 61.521,69.64 47.36,69.64 z" fill="#5EA9DD"/>
    <g>
      <path d="M30.794,49.553 L30.794,37.811 L32.877,37.811 L32.877,49.553 z" fill="#FFFFFF"/>
      <path d="M30.794,49.553 L30.794,37.811 L32.877,37.811 L32.877,49.553 z" fill-opacity="0" stroke="#FFFBFB" stroke-width="1"/>
    </g>
    <g>
      <path d="M40.418,49.769 Q39.269,49.769 38.317,49.347 Q37.366,48.925 36.684,48.126 Q36.001,47.327 35.624,46.196 Q35.247,45.065 35.247,43.628 Q35.247,42.21 35.624,41.088 Q36.001,39.965 36.684,39.193 Q37.366,38.421 38.317,38.008 Q39.269,37.595 40.418,37.595 Q41.567,37.595 42.519,38.008 Q43.47,38.421 44.162,39.193 Q44.853,39.965 45.23,41.088 Q45.607,42.21 45.607,43.628 Q45.607,45.065 45.23,46.196 Q44.853,47.327 44.162,48.126 Q43.47,48.925 42.519,49.347 Q41.567,49.769 40.418,49.769 z M40.418,47.955 Q41.118,47.955 41.675,47.65 Q42.232,47.345 42.627,46.779 Q43.022,46.214 43.237,45.415 Q43.452,44.616 43.452,43.628 Q43.452,41.653 42.635,40.531 Q41.819,39.409 40.418,39.409 Q39.018,39.409 38.201,40.531 Q37.384,41.653 37.384,43.628 Q37.384,44.616 37.599,45.415 Q37.815,46.214 38.21,46.779 Q38.605,47.345 39.161,47.65 Q39.718,47.955 40.418,47.955 z" fill="#FFFFFF"/>
      <path d="M40.418,49.769 Q39.269,49.769 38.317,49.347 Q37.366,48.925 36.684,48.126 Q36.001,47.327 35.624,46.196 Q35.247,45.065 35.247,43.628 Q35.247,42.21 35.624,41.088 Q36.001,39.965 36.684,39.193 Q37.366,38.421 38.317,38.008 Q39.269,37.595 40.418,37.595 Q41.567,37.595 42.519,38.008 Q43.47,38.421 44.162,39.193 Q44.853,39.965 45.23,41.088 Q45.607,42.21 45.607,43.628 Q45.607,45.065 45.23,46.196 Q44.853,47.327 44.162,48.126 Q43.47,48.925 42.519,49.347 Q41.567,49.769 40.418,49.769 z M40.418,47.955 Q41.118,47.955 41.675,47.65 Q42.232,47.345 42.627,46.779 Q43.022,46.214 43.237,45.415 Q43.452,44.616 43.452,43.628 Q43.452,41.653 42.635,40.531 Q41.819,39.409 40.418,39.409 Q39.018,39.409 38.201,40.531 Q37.384,41.653 37.384,43.628 Q37.384,44.616 37.599,45.415 Q37.815,46.214 38.21,46.779 Q38.605,47.345 39.161,47.65 Q39.718,47.955 40.418,47.955 z" fill-opacity="0" stroke="#FFFBFB" stroke-width="1"/>
    </g>
    <g>
      <path d="M47.959,49.553 L47.959,37.811 L51.658,37.811 Q52.627,37.811 53.462,37.99 Q54.297,38.17 54.907,38.601 Q55.518,39.032 55.859,39.723 Q56.2,40.414 56.2,41.438 Q56.2,42.407 55.859,43.125 Q55.518,43.844 54.916,44.319 Q54.315,44.795 53.498,45.02 Q52.681,45.244 51.729,45.244 L50.042,45.244 L50.042,49.553 z M50.042,43.574 L51.568,43.574 Q54.153,43.574 54.153,41.438 Q54.153,40.325 53.48,39.903 Q52.807,39.481 51.496,39.481 L50.042,39.481 z" fill="#FFFFFF"/>
      <path d="M47.959,49.553 L47.959,37.811 L51.658,37.811 Q52.627,37.811 53.462,37.99 Q54.297,38.17 54.907,38.601 Q55.518,39.032 55.859,39.723 Q56.2,40.414 56.2,41.438 Q56.2,42.407 55.859,43.125 Q55.518,43.844 54.916,44.319 Q54.315,44.795 53.498,45.02 Q52.681,45.244 51.729,45.244 L50.042,45.244 L50.042,49.553 z M50.042,43.574 L51.568,43.574 Q54.153,43.574 54.153,41.438 Q54.153,40.325 53.48,39.903 Q52.807,39.481 51.496,39.481 L50.042,39.481 z" fill-opacity="0" stroke="#FFFBFB" stroke-width="1"/>
    </g>
    <g>
      <path d="M59.917,43.305 L59.504,44.741 L62.502,44.741 L62.089,43.305 Q61.802,42.371 61.542,41.384 Q61.281,40.396 61.03,39.427 L60.958,39.427 Q60.707,40.414 60.455,41.393 Q60.204,42.371 59.917,43.305 z M55.985,49.553 L59.809,37.811 L62.251,37.811 L66.075,49.553 L63.885,49.553 L62.969,46.375 L59.019,46.375 L58.103,49.553 z" fill="#FFFFFF"/>
      <path d="M59.917,43.305 L59.504,44.741 L62.502,44.741 L62.089,43.305 Q61.802,42.371 61.542,41.384 Q61.281,40.396 61.03,39.427 L60.958,39.427 Q60.707,40.414 60.455,41.393 Q60.204,42.371 59.917,43.305 z M55.985,49.553 L59.809,37.811 L62.251,37.811 L66.075,49.553 L63.885,49.553 L62.969,46.375 L59.019,46.375 L58.103,49.553 z" fill-opacity="0" stroke="#FFFBFB" stroke-width="1"/>
    </g>
    <path d="M6.814,67.053 L6.814,67.053" fill-opacity="0" stroke="#FFFBFB" stroke-width="10"/>
    <g>
      <path d="M66.256,54.304 L66.254,54.371 L66.242,54.491 L66.219,54.6 L66.188,54.7 L66.152,54.787 L66.114,54.856 L66.083,54.902 L66.066,54.92 L66.068,54.909 L66.086,54.879 L66.107,54.85 L66.111,54.841 L66.084,54.858 L66.023,54.901 L65.929,54.965 L65.808,55.042 L65.662,55.13 L65.497,55.223 L65.313,55.32 L65.114,55.42 L64.901,55.521 L64.674,55.622 L64.434,55.723 L64.183,55.824 L63.921,55.923 L63.648,56.022 L63.365,56.119 L63.072,56.215 L62.769,56.309 L62.457,56.402 L62.136,56.492 L61.806,56.581 L61.467,56.669 L61.12,56.754 L60.764,56.837 L60.401,56.918 L60.029,56.996 L59.65,57.073 L59.263,57.147 L58.869,57.219 L58.468,57.289 L58.06,57.356 L57.645,57.421 L57.224,57.483 L56.796,57.543 L56.362,57.6 L55.921,57.655 L55.475,57.707 L55.023,57.756 L54.565,57.802 L54.102,57.846 L53.634,57.886 L53.16,57.924 L52.682,57.959 L52.198,57.991 L51.71,58.02 L51.218,58.046 L50.721,58.069 L50.22,58.088 L49.715,58.105 L49.206,58.118 L48.694,58.128 L48.178,58.135 L47.658,58.138 L47.398,58.139 L47.398,58.139 C47.209,58.139 46.768,58.465 46.414,58.866 C46.06,59.268 45.926,59.593 46.115,59.593 L46.377,59.592 L46.899,59.589 L47.417,59.582 L47.932,59.572 L48.443,59.559 L48.95,59.542 L49.454,59.523 L49.953,59.5 L50.448,59.474 L50.938,59.444 L51.424,59.412 L51.906,59.377 L52.382,59.339 L52.854,59.298 L53.32,59.254 L53.781,59.207 L54.236,59.158 L54.686,59.106 L55.13,59.051 L55.568,58.993 L55.999,58.933 L56.425,58.87 L56.844,58.804 L57.257,58.736 L57.663,58.666 L58.062,58.593 L58.454,58.517 L58.839,58.44 L59.217,58.359 L59.587,58.277 L59.95,58.192 L60.305,58.105 L60.652,58.016 L60.992,57.924 L61.324,57.83 L61.647,57.734 L61.963,57.636 L62.27,57.535 L62.569,57.433 L62.86,57.327 L63.143,57.219 L63.419,57.109 L63.686,56.996 L63.946,56.879 L64.2,56.759 L64.447,56.634 L64.69,56.504 L64.929,56.367 L65.168,56.222 L65.409,56.063 L65.655,55.887 L65.912,55.689 L66.181,55.463 L66.457,55.206 L66.727,54.928 L66.972,54.647 L67.176,54.382 L67.336,54.144 L67.458,53.931 L67.55,53.741 L67.617,53.566 L67.664,53.401 L67.694,53.244 L67.708,53.097 L67.71,53.029 C67.71,53.029 67.71,53.029 67.71,53.029 C67.714,52.836 67.392,52.965 66.991,53.317 C66.59,53.669 66.26,54.111 66.256,54.304 L66.256,54.304" fill="#FFFDFD"/>
      <path d="M27.135,54.312 L27.137,54.379 L27.15,54.523 L27.178,54.667 L27.22,54.808 L27.274,54.946 L27.341,55.082 L27.42,55.216 L27.511,55.348 L27.615,55.478 L27.73,55.606 L27.857,55.734 L27.996,55.859 L28.146,55.983 L28.307,56.105 L28.479,56.226 L28.662,56.346 L28.856,56.463 L29.06,56.579 L29.274,56.694 L29.499,56.807 L29.734,56.918 L29.979,57.028 L30.234,57.135 L30.499,57.242 L30.773,57.346 L31.056,57.448 L31.348,57.549 L31.65,57.647 L31.96,57.744 L32.279,57.839 L32.607,57.931 L32.943,58.022 L33.287,58.11 L33.639,58.197 L33.999,58.281 L34.367,58.363 L34.743,58.443 L35.126,58.52 L35.516,58.595 L35.914,58.668 L36.318,58.738 L36.729,58.806 L37.147,58.871 L37.572,58.934 L38.002,58.994 L38.439,59.051 L38.882,59.106 L39.331,59.158 L39.786,59.208 L40.246,59.254 L40.712,59.298 L41.183,59.339 L41.658,59.377 L42.139,59.412 L42.625,59.444 L43.115,59.474 L43.61,59.5 L44.109,59.523 L44.612,59.542 L45.119,59.559 L45.63,59.572 L46.145,59.582 L46.663,59.589 L47.184,59.592 L47.446,59.593 L47.446,59.593 C47.635,59.593 48.075,59.268 48.43,58.866 C48.784,58.465 48.919,58.139 48.73,58.139 L48.469,58.138 L47.95,58.135 L47.434,58.128 L46.921,58.118 L46.412,58.105 L45.907,58.088 L45.406,58.069 L44.909,58.046 L44.416,58.02 L43.928,57.991 L43.444,57.959 L42.965,57.924 L42.491,57.886 L42.022,57.845 L41.558,57.802 L41.1,57.755 L40.647,57.706 L40.2,57.654 L39.759,57.6 L39.323,57.542 L38.894,57.482 L38.472,57.42 L38.056,57.355 L37.646,57.287 L37.244,57.217 L36.848,57.145 L36.46,57.071 L36.079,56.994 L35.705,56.914 L35.339,56.833 L34.981,56.749 L34.631,56.663 L34.289,56.576 L33.955,56.485 L33.63,56.393 L33.313,56.299 L33.005,56.204 L32.706,56.106 L32.416,56.006 L32.135,55.905 L31.864,55.801 L31.602,55.697 L31.35,55.59 L31.108,55.482 L30.876,55.372 L30.654,55.261 L30.443,55.148 L30.242,55.034 L30.052,54.918 L29.873,54.802 L29.705,54.684 L29.548,54.564 L29.402,54.444 L29.268,54.323 L29.146,54.201 L29.035,54.078 L28.937,53.954 L28.85,53.83 L28.776,53.706 L28.714,53.582 L28.665,53.458 L28.628,53.334 L28.603,53.212 L28.591,53.089 L28.589,53.021 C28.584,52.836 28.255,52.976 27.854,53.332 C27.452,53.688 27.131,54.127 27.135,54.312 L27.135,54.312" fill="#FFFDFD"/>
    </g>
    <path d="M93.244,27.074 L97.036,27.074 L97.036,57.266 L93.244,57.266 z" fill="#444444"/>
    <path d="M119.34,26.546 Q125.196,26.546 128.82,30.554 Q132.444,34.562 132.444,42.218 Q132.444,49.874 128.844,53.834 Q125.244,57.794 119.34,57.794 Q113.436,57.794 109.86,53.786 Q106.284,49.778 106.284,42.194 Q106.284,34.562 109.86,30.554 Q113.436,26.546 119.34,26.546 z M119.34,29.954 Q115.116,29.954 112.668,33.122 Q110.22,36.29 110.22,42.242 Q110.22,48.194 112.668,51.266 Q115.116,54.338 119.34,54.338 Q123.564,54.338 126.036,51.266 Q128.508,48.194 128.508,42.242 Q128.508,36.29 126.036,33.122 Q123.564,29.954 119.34,29.954 z" fill="#444444"/>
    <path d="M151.34,27.074 Q156.332,27.074 158.948,29.594 Q161.564,32.114 161.564,36.386 Q161.564,40.658 158.948,43.13 Q156.332,45.602 151.34,45.602 L145.388,45.602 L145.388,57.266 L141.596,57.266 L141.596,27.074 L151.34,27.074 z M151.34,42.338 Q154.46,42.338 156.068,40.754 Q157.676,39.17 157.676,36.41 Q157.676,33.65 156.068,31.994 Q154.46,30.338 151.34,30.338 L145.388,30.338 L145.388,42.338 z" fill="#444444"/>
    <path d="M175.228,27.074 L179.836,27.074 L189.964,57.266 L186.028,57.266 L183.436,49.586 L171.436,49.586 L168.844,57.266 L164.86,57.266 z M172.444,46.61 L182.476,46.61 L177.484,31.73 z" fill="#444444"/>
  </g>
</svg>
