<?xml version="1.0" standalone="no"?>
<!DOCTYPE svg PUBLIC "-//W3C//DTD SVG 20010904//EN"
 "http://www.w3.org/TR/2001/REC-SVG-20010904/DTD/svg10.dtd">
<svg version="1.0" xmlns="http://www.w3.org/2000/svg"
 width="700.000000pt" height="700.000000pt" viewBox="0 0 700.000000 700.000000"
 preserveAspectRatio="xMidYMid meet">
<metadata>
Created by potrace 1.14, written by Peter Selinger 2001-2017
</metadata>
<g transform="translate(0.000000,700.000000) scale(0.100000,-0.100000)"
fill="#000000" stroke="none">
<path d="M3270 6303 c-124 -13 -220 -26 -306 -44 -28 -5 -64 -12 -80 -15 -156
-28 -484 -147 -670 -244 -189 -98 -413 -249 -549 -369 -74 -66 -261 -256 -316
-321 -29 -36 -56 -67 -59 -70 -14 -12 -132 -183 -179 -258 -183 -294 -326
-668 -380 -997 -6 -33 -13 -73 -15 -89 -28 -165 -29 -642 -1 -787 2 -9 7 -39
10 -66 22 -159 100 -427 182 -628 170 -419 476 -822 843 -1114 416 -331 921
-539 1455 -598 92 -10 501 -10 590 0 39 4 97 12 130 18 33 6 71 12 84 14 163
28 470 119 586 175 11 5 59 27 106 48 270 123 546 318 779 551 242 242 407
472 548 761 73 151 169 409 188 503 2 10 6 27 9 37 3 10 8 28 10 39 3 12 7 31
10 44 17 72 26 126 49 297 14 103 15 537 2 620 -3 19 -7 51 -10 70 -10 75 -38
220 -62 315 -25 99 -100 331 -114 350 -4 6 -11 21 -15 35 -14 47 -102 224
-160 325 -85 148 -199 308 -304 430 -82 95 -284 288 -381 364 -58 45 -113 89
-123 97 -9 8 -19 14 -22 14 -2 0 -24 13 -47 29 -212 144 -487 275 -733 349
-127 38 -293 77 -375 87 -8 1 -33 5 -55 9 -22 3 -62 9 -90 12 -58 7 -483 13
-535 7z"/>
</g>
</svg>
